<?xml version="1.0" encoding="UTF-8"?>
<svg xmlns="http://www.w3.org/2000/svg" xmlns:xlink="http://www.w3.org/1999/xlink" width="400px" height="266px" viewBox="0 0 400 266" version="1.1">
<defs>
<filter id="alpha" filterUnits="objectBoundingBox" x="0%" y="0%" width="100%" height="100%">
  <feColorMatrix type="matrix" in="SourceGraphic" values="0 0 0 0 1 0 0 0 0 1 0 0 0 0 1 0 0 0 1 0"/>
</filter>
<mask id="mask0">
  <g filter="url(#alpha)">
<rect x="0" y="0" width="400" height="266" style="fill:rgb(0%,0%,0%);fill-opacity:0.2;stroke:none;"/>
  </g>
</mask>
<clipPath id="clip1">
  <rect x="0" y="0" width="400" height="266"/>
</clipPath>
<g id="surface5" clip-path="url(#clip1)">
<path style=" stroke:none;fill-rule:nonzero;fill:rgb(0%,0%,0%);fill-opacity:1;" d="M 213.761719 249.664062 L 214.847656 249.664062 L 214.847656 200.265625 L 240.117188 200.265625 L 240.117188 199.183594 L 214.847656 199.183594 L 214.847656 178.339844 L 234.359375 178.339844 C 234.074219 177.976562 233.78125 177.613281 233.476562 177.261719 L 214.847656 177.261719 L 214.847656 163.492188 C 214.488281 163.339844 214.128906 163.191406 213.761719 163.054688 L 213.761719 177.261719 L 192.53125 177.261719 L 192.53125 159.621094 C 192.167969 159.636719 191.808594 159.664062 191.445312 159.691406 L 191.445312 177.261719 L 174.507812 177.261719 L 174.507812 164.097656 C 174.144531 164.261719 173.785156 164.429688 173.429688 164.609375 L 173.429688 177.261719 L 159.191406 177.261719 L 159.191406 178.339844 L 173.429688 178.339844 L 173.429688 199.183594 L 159.191406 199.183594 L 159.191406 200.265625 L 173.429688 200.265625 L 173.429688 249.664062 L 174.507812 249.664062 L 174.507812 200.265625 C 183.863281 200.265625 191.449219 207.859375 191.445312 217.230469 L 191.445312 249.664062 L 192.53125 249.664062 L 192.53125 200.265625 L 213.761719 200.265625 Z M 174.507812 199.183594 L 174.507812 178.339844 L 191.445312 178.339844 L 191.445312 199.183594 Z M 192.53125 199.183594 L 192.53125 178.339844 L 192.953125 178.339844 C 204.449219 178.339844 213.765625 187.671875 213.761719 199.183594 Z M 192.53125 199.183594 "/>
</g>
</defs>
<g id="surface1">
<path style=" stroke:none;fill-rule:nonzero;fill:rgb(94.901961%,94.901961%,94.901961%);fill-opacity:1;" d="M 202.667969 74.78125 C 199.101562 68.871094 194.875 62.5625 188.253906 60.632812 C 180.585938 58.398438 172.710938 62.839844 166.03125 67.21875 C 146.058594 80.316406 126.820312 94.515625 108.410156 109.742188 L 108.429688 109.972656 C 122.761719 108.980469 137.09375 107.992188 151.429688 107 C 161.785156 106.285156 172.496094 105.472656 181.648438 100.566406 C 185.121094 98.703125 188.507812 96.21875 192.441406 96.042969 C 197.332031 95.828125 201.59375 99.25 204.945312 102.820312 C 224.761719 123.957031 230.496094 156.28125 252.730469 174.847656 C 238.710938 140.21875 221.96875 106.757812 202.667969 74.78125 Z M 202.667969 74.78125 "/>
<path style=" stroke:none;fill-rule:nonzero;fill:rgb(89.411765%,89.411765%,89.411765%);fill-opacity:1;" d="M 324.480469 254.054688 C 322.289062 251.28125 321.394531 250.632812 319.234375 247.835938 C 301.632812 225.035156 285.089844 201.464844 269.601562 177.125 C 259.082031 160.589844 249.085938 143.742188 239.609375 126.578125 C 235.097656 118.414062 230.710938 110.191406 226.445312 101.902344 C 223.136719 95.472656 219.902344 89.007812 216.742188 82.503906 C 215.839844 80.644531 214.960938 78.78125 214.085938 76.910156 C 212.027344 72.511719 210.003906 68.089844 207.835938 63.75 C 205.363281 58.804688 202.351562 53.621094 197.8125 50.300781 C 195.746094 48.726562 193.273438 47.773438 190.6875 47.554688 C 186.988281 47.3125 183.578125 48.84375 180.371094 50.511719 C 156.910156 62.765625 134.949219 78.125 115.082031 95.605469 C 95.167969 113.125 77.367188 132.917969 62.039062 154.578125 C 61.570312 155.25 60.464844 154.609375 60.9375 153.933594 C 62.800781 151.292969 64.699219 148.683594 66.636719 146.101562 C 90.726562 114.015625 120.261719 86.421875 153.894531 64.585938 C 159.550781 60.910156 165.316406 57.410156 171.1875 54.082031 C 174.148438 52.40625 177.117188 50.746094 180.140625 49.195312 C 183.105469 47.667969 186.25 46.296875 189.636719 46.246094 C 201.15625 46.066406 207.125 59.136719 211.222656 67.929688 C 212.507812 70.695312 213.8125 73.453125 215.132812 76.203125 C 220.117188 86.644531 225.292969 96.992188 230.660156 107.242188 C 233.972656 113.574219 237.359375 119.863281 240.816406 126.121094 C 251.578125 145.597656 263.015625 164.679688 275.132812 183.371094 C 291.179688 208.128906 307.101562 229.996094 325.386719 253.148438 C 325.890625 253.789062 324.988281 254.703125 324.480469 254.054688 Z M 324.480469 254.054688 "/>
<path style=" stroke:none;fill-rule:nonzero;fill:rgb(89.411765%,89.411765%,89.411765%);fill-opacity:1;" d="M 113.945312 89.152344 C 113.277344 88.40625 112.609375 87.660156 111.9375 86.910156 C 106.625 81.027344 100.921875 75.210938 93.628906 71.835938 C 90.148438 70.175781 86.351562 69.296875 82.5 69.253906 C 78.515625 69.265625 74.625 70.3125 70.945312 71.777344 C 69.203125 72.472656 67.503906 73.261719 65.828125 74.105469 C 63.914062 75.070312 62.03125 76.097656 60.160156 77.136719 C 56.648438 79.082031 53.179688 81.117188 49.757812 83.234375 C 42.949219 87.449219 36.351562 91.984375 29.96875 96.84375 C 26.660156 99.363281 23.417969 101.964844 20.246094 104.652344 C 17.296875 107.144531 14.40625 109.707031 11.574219 112.335938 C 10.96875 112.894531 10.066406 111.988281 10.667969 111.429688 C 11.417969 110.734375 12.171875 110.039062 12.925781 109.359375 C 15.058594 107.425781 17.222656 105.535156 19.421875 103.675781 C 23.4375 100.285156 27.550781 97.027344 31.773438 93.898438 C 38.335938 89.03125 45.121094 84.492188 52.136719 80.285156 C 55.640625 78.183594 59.195312 76.167969 62.796875 74.246094 C 63.882812 73.664062 64.984375 73.097656 66.097656 72.558594 C 68.621094 71.28125 71.246094 70.210938 73.941406 69.359375 C 77.761719 68.121094 81.804688 67.722656 85.789062 68.191406 C 89.640625 68.753906 93.351562 70.039062 96.722656 71.980469 C 103.886719 75.992188 109.441406 82.191406 114.847656 88.242188 C 115.394531 88.859375 114.496094 89.769531 113.945312 89.152344 Z M 113.945312 89.152344 "/>
<path style=" stroke:none;fill-rule:nonzero;fill:rgb(89.411765%,89.411765%,89.411765%);fill-opacity:1;" d="M 260.71875 150.136719 L 277.882812 143.847656 L 286.40625 140.726562 C 289.179688 139.710938 291.949219 138.550781 294.820312 137.824219 C 297.3125 137.109375 299.960938 137.144531 302.433594 137.921875 C 304.640625 138.738281 306.660156 139.992188 308.375 141.609375 C 310.125 143.222656 311.753906 144.964844 313.246094 146.820312 C 315.101562 149.054688 316.929688 151.308594 318.765625 153.558594 C 326.34375 162.84375 333.875 172.167969 341.355469 181.53125 C 348.832031 190.894531 356.261719 200.296875 363.640625 209.738281 C 371.039062 219.207031 378.386719 228.710938 385.683594 238.257812 C 386.574219 239.425781 387.46875 240.597656 388.359375 241.765625 C 388.851562 242.414062 389.964844 241.777344 389.464844 241.121094 C 382.117188 231.480469 374.714844 221.878906 367.261719 212.316406 C 359.792969 202.730469 352.269531 193.183594 344.695312 183.679688 C 337.125 174.175781 329.5 164.714844 321.824219 155.292969 C 319.910156 152.945312 317.996094 150.601562 316.078125 148.257812 C 314.457031 146.285156 312.859375 144.285156 311.082031 142.449219 C 307.824219 139.074219 303.753906 136.089844 298.882812 136.007812 C 296.015625 135.960938 293.242188 136.871094 290.582031 137.835938 C 287.710938 138.875 284.847656 139.9375 281.984375 140.984375 L 264.699219 147.316406 L 260.378906 148.902344 C 259.609375 149.183594 259.941406 150.421875 260.71875 150.136719 Z M 260.71875 150.136719 "/>
<path style=" stroke:none;fill-rule:nonzero;fill:rgb(94.901961%,94.901961%,94.901961%);fill-opacity:1;" d="M 91.367188 79.242188 C 82.644531 74.75 71.476562 75.628906 63.460938 81.238281 C 78.75 83.882812 93.871094 87.417969 108.75 91.828125 C 102.570312 88.199219 97.738281 82.519531 91.367188 79.242188 Z M 91.367188 79.242188 "/>
<path style=" stroke:none;fill-rule:nonzero;fill:rgb(94.901961%,94.901961%,94.901961%);fill-opacity:1;" d="M 63.375 81.222656 L 61.695312 82.589844 C 62.261719 82.113281 62.851562 81.664062 63.460938 81.238281 C 63.429688 81.234375 63.402344 81.230469 63.375 81.222656 Z M 63.375 81.222656 "/>
<path style=" stroke:none;fill-rule:nonzero;fill:rgb(94.901961%,94.901961%,94.901961%);fill-opacity:1;" d="M 307.726562 150.199219 C 306.039062 148.140625 304.210938 145.980469 301.683594 145.144531 L 299.324219 145.238281 C 317.285156 177.027344 341.546875 204.804688 370.613281 226.863281 C 349.648438 201.308594 328.6875 175.753906 307.726562 150.199219 Z M 307.726562 150.199219 "/>
<path style=" stroke:none;fill-rule:nonzero;fill:rgb(94.901961%,94.901961%,94.901961%);fill-opacity:1;" d="M 161 133.207031 C 162.089844 137.179688 164.550781 140.636719 167.945312 142.96875 C 169.257812 143.863281 170.808594 144.722656 171.257812 146.246094 C 171.492188 147.21875 171.347656 148.242188 170.851562 149.109375 C 170.355469 149.96875 169.75 150.757812 169.054688 151.460938 L 168.992188 151.699219 C 165.734375 149.765625 162.640625 147.320312 160.839844 143.988281 C 159.042969 140.652344 158.792969 136.28125 161 133.207031 "/>
<path style=" stroke:none;fill-rule:nonzero;fill:rgb(94.901961%,94.901961%,94.901961%);fill-opacity:1;" d="M 269.371094 227.773438 C 270.464844 231.746094 272.921875 235.203125 276.316406 237.535156 C 277.628906 238.429688 279.179688 239.289062 279.628906 240.8125 C 279.863281 241.785156 279.71875 242.8125 279.222656 243.679688 C 278.726562 244.535156 278.121094 245.324219 277.425781 246.027344 L 277.363281 246.265625 C 274.109375 244.332031 271.011719 241.890625 269.214844 238.554688 C 267.414062 235.21875 267.164062 230.851562 269.371094 227.773438 "/>
<path style=" stroke:none;fill-rule:nonzero;fill:rgb(94.901961%,94.901961%,94.901961%);fill-opacity:1;" d="M 53.09375 221.25 C 54.183594 225.222656 56.644531 228.683594 60.039062 231.015625 C 61.347656 231.910156 62.902344 232.765625 63.351562 234.292969 C 63.585938 235.261719 63.441406 236.289062 62.945312 237.15625 C 62.449219 238.011719 61.84375 238.800781 61.148438 239.503906 L 61.085938 239.742188 C 57.828125 237.8125 54.730469 235.367188 52.933594 232.03125 C 51.136719 228.699219 50.886719 224.328125 53.09375 221.25 "/>
<path style=" stroke:none;fill-rule:nonzero;fill:rgb(39.215686%,36.078431%,100%);fill-opacity:1;" d="M 325.695312 23.757812 C 325.695312 36.878906 315.078125 47.515625 301.976562 47.515625 C 288.875 47.515625 278.253906 36.878906 278.253906 23.757812 C 278.253906 10.636719 288.875 0 301.976562 0 C 315.078125 0 325.695312 10.636719 325.695312 23.757812 Z M 325.695312 23.757812 "/>
<path style=" stroke:none;fill-rule:nonzero;fill:rgb(94.117647%,94.117647%,94.117647%);fill-opacity:1;" d="M 344.785156 5.53125 C 333.289062 3.972656 320.164062 10.195312 317.183594 21.425781 C 315.640625 17.328125 311.632812 14.699219 307.269531 14.925781 C 302.902344 15.148438 299.183594 18.175781 298.070312 22.410156 L 299.386719 23.351562 C 324.023438 28.6875 349.523438 28.574219 374.109375 23.015625 C 366.113281 14.597656 356.28125 7.085938 344.785156 5.53125 Z M 344.785156 5.53125 "/>
<path style=" stroke:none;fill-rule:nonzero;fill:rgb(94.117647%,94.117647%,94.117647%);fill-opacity:1;" d="M 295.480469 37.207031 C 283.984375 35.652344 270.859375 41.875 267.878906 53.105469 C 266.339844 49.007812 262.332031 46.378906 257.964844 46.601562 C 253.601562 46.828125 249.882812 49.851562 248.765625 54.085938 L 250.082031 55.03125 C 274.71875 60.367188 300.222656 60.25 324.808594 54.691406 C 316.8125 46.273438 306.976562 38.765625 295.480469 37.207031 Z M 295.480469 37.207031 "/>
<path style=" stroke:none;fill-rule:nonzero;fill:rgb(80%,80%,80%);fill-opacity:1;" d="M 395.820312 43.199219 C 395.773438 43.199219 395.722656 43.191406 395.679688 43.175781 C 272.699219 4.222656 164.308594 9.316406 95.035156 20.449219 C 85.609375 21.964844 76.15625 23.710938 66.941406 25.648438 C 64.589844 26.140625 62.148438 26.671875 59.6875 27.222656 C 56.75 27.878906 53.847656 28.550781 51.066406 29.226562 C 49.867188 29.511719 48.691406 29.800781 47.535156 30.089844 C 45.789062 30.519531 44.015625 30.972656 42.113281 31.464844 C 39.988281 32.015625 37.828125 32.589844 35.695312 33.175781 C 35.6875 33.179688 35.679688 33.179688 35.671875 33.183594 C 33.261719 33.84375 30.863281 34.519531 28.542969 35.199219 C 27.289062 35.5625 26.078125 35.917969 24.917969 36.273438 C 24.789062 36.308594 24.671875 36.34375 24.554688 36.378906 L 24.304688 36.457031 C 24.164062 36.5 24.019531 36.542969 23.875 36.582031 L 23.867188 36.585938 L 23.492188 36.703125 C 23.039062 36.839844 22.601562 36.972656 22.167969 37.105469 C 10.753906 40.632812 4.476562 43.140625 4.414062 43.164062 C 4.175781 43.257812 3.90625 43.144531 3.808594 42.90625 C 3.714844 42.664062 3.832031 42.394531 4.070312 42.300781 C 4.132812 42.273438 10.4375 39.753906 21.894531 36.214844 C 22.328125 36.082031 22.769531 35.949219 23.222656 35.8125 L 23.570312 35.703125 C 23.582031 35.699219 23.597656 35.695312 23.609375 35.691406 C 23.75 35.652344 23.890625 35.609375 24.035156 35.5625 L 24.285156 35.488281 C 24.410156 35.449219 24.53125 35.414062 24.660156 35.378906 C 25.8125 35.027344 27.027344 34.667969 28.285156 34.304688 C 30.605469 33.625 33.003906 32.949219 35.417969 32.289062 C 35.425781 32.285156 35.433594 32.28125 35.441406 32.28125 C 37.582031 31.691406 39.75 31.113281 41.878906 30.5625 C 43.785156 30.070312 45.5625 29.617188 47.3125 29.183594 C 48.472656 28.894531 49.652344 28.609375 50.851562 28.320312 C 53.636719 27.644531 56.542969 26.96875 59.484375 26.3125 C 61.949219 25.761719 64.394531 25.230469 66.75 24.734375 C 75.980469 22.796875 85.449219 21.046875 94.890625 19.527344 C 164.261719 8.378906 272.804688 3.277344 395.960938 42.289062 C 396.179688 42.355469 396.3125 42.574219 396.277344 42.800781 C 396.242188 43.03125 396.046875 43.199219 395.820312 43.199219 Z M 395.820312 43.199219 "/>
<path style=" stroke:none;fill-rule:nonzero;fill:rgb(24.705882%,23.921569%,33.72549%);fill-opacity:1;" d="M 122.320312 195.582031 C 122.160156 195.109375 121.886719 194.683594 121.53125 194.339844 C 121.398438 194.214844 121.253906 194.105469 121.101562 194.007812 C 119.886719 193.195312 118.074219 193.015625 116.921875 194.007812 C 116.804688 194.109375 116.695312 194.21875 116.597656 194.339844 C 116.253906 194.761719 115.902344 195.175781 115.539062 195.582031 C 114.945312 196.261719 114.335938 196.917969 113.695312 197.558594 C 113.515625 197.734375 113.335938 197.917969 113.148438 198.09375 C 113.042969 198.199219 112.933594 198.304688 112.828125 198.40625 C 112.417969 198.796875 112 199.175781 111.578125 199.546875 C 111.351562 199.746094 111.128906 199.941406 110.902344 200.132812 C 110.5625 200.417969 110.222656 200.703125 109.878906 200.976562 C 109.847656 201 109.8125 201.023438 109.78125 201.050781 C 109.773438 201.054688 109.765625 201.066406 109.757812 201.070312 C 109.753906 201.070312 109.75 201.070312 109.742188 201.078125 C 109.730469 201.085938 109.71875 201.09375 109.710938 201.101562 C 109.609375 201.171875 109.539062 201.21875 109.488281 201.261719 C 109.507812 201.25 109.523438 201.238281 109.542969 201.226562 C 109.460938 201.292969 109.371094 201.359375 109.289062 201.425781 C 108.472656 202.023438 107.640625 202.601562 106.789062 203.144531 C 104.683594 204.492188 102.472656 205.667969 100.175781 206.660156 C 100.023438 206.71875 99.863281 206.785156 99.707031 206.847656 C 93.695312 209.3125 87.171875 210.277344 80.707031 209.652344 C 80.046875 209.601562 79.386719 209.53125 78.726562 209.441406 C 77.960938 209.328125 77.203125 209.195312 76.449219 209.039062 C 73.582031 208.46875 70.773438 207.617188 68.070312 206.507812 C 64.683594 204.953125 61.464844 203.0625 58.460938 200.859375 C 57.996094 200.53125 57.523438 200.199219 57.054688 199.878906 C 57.589844 198.5625 58.117188 197.25 58.628906 195.925781 C 58.882812 195.289062 59.128906 194.652344 59.371094 194.007812 C 61.273438 189.054688 63.058594 184.058594 64.773438 179.039062 C 66.5 173.957031 68.132812 168.84375 69.667969 163.703125 C 69.828125 163.183594 69.980469 162.660156 70.128906 162.140625 C 70.933594 159.421875 71.707031 156.699219 72.445312 153.972656 C 72.515625 153.707031 72.589844 153.445312 72.65625 153.179688 C 72.871094 152.398438 73.078125 151.617188 73.28125 150.832031 C 73.75 149.066406 72.695312 146.957031 70.847656 146.53125 C 68.992188 146.058594 67.097656 147.136719 66.558594 148.972656 C 66.359375 149.730469 66.15625 150.480469 65.953125 151.234375 C 64.972656 154.882812 63.9375 158.515625 62.855469 162.140625 C 62.695312 162.660156 62.539062 163.183594 62.378906 163.703125 C 59.988281 171.59375 57.367188 179.40625 54.507812 187.140625 C 54.164062 188.078125 53.8125 189.011719 53.460938 189.941406 C 53.289062 190.398438 53.117188 190.855469 52.9375 191.308594 C 52.597656 192.210938 52.25 193.109375 51.902344 194.007812 C 51.703125 194.535156 51.496094 195.058594 51.292969 195.582031 C 51.15625 195.914062 51.027344 196.242188 50.898438 196.570312 C 49.570312 196.09375 48.195312 195.761719 46.800781 195.582031 L 46.578125 195.554688 C 45.492188 195.421875 44.398438 195.433594 43.316406 195.582031 C 40.039062 195.964844 37.101562 197.785156 35.296875 200.546875 C 33.078125 204.046875 33.105469 209.050781 36.21875 212.023438 C 39.421875 215.082031 44.273438 215.058594 48.046875 213.144531 C 50.042969 212.0625 51.730469 210.480469 52.9375 208.550781 C 53.402344 207.851562 53.828125 207.128906 54.214844 206.386719 C 54.3125 206.449219 54.410156 206.515625 54.507812 206.585938 C 54.878906 206.847656 55.25 207.113281 55.617188 207.371094 C 57.757812 208.925781 60.015625 210.3125 62.367188 211.523438 C 67.421875 214.042969 72.867188 215.691406 78.46875 216.402344 C 78.59375 216.414062 78.714844 216.433594 78.839844 216.449219 C 79.460938 216.527344 80.082031 216.585938 80.707031 216.636719 C 89.648438 217.3125 98.597656 215.480469 106.558594 211.347656 C 107.230469 210.996094 107.898438 210.628906 108.5625 210.246094 C 109.589844 209.652344 110.59375 209.015625 111.578125 208.347656 C 112.109375 207.984375 112.632812 207.613281 113.148438 207.226562 C 115.40625 205.5625 117.507812 203.699219 119.433594 201.660156 C 120.164062 200.894531 120.863281 200.097656 121.53125 199.28125 C 122.160156 198.613281 122.527344 197.734375 122.554688 196.8125 C 122.550781 196.390625 122.46875 195.976562 122.320312 195.582031 Z M 45.300781 206.679688 C 45.398438 206.609375 45.496094 206.535156 45.589844 206.460938 C 45.5625 206.53125 45.425781 206.609375 45.300781 206.679688 Z M 46.792969 205.175781 C 46.6875 205.296875 46.589844 205.417969 46.484375 205.539062 C 46.15625 205.902344 45.808594 206.246094 45.4375 206.5625 C 45.386719 206.609375 45.328125 206.65625 45.273438 206.699219 C 45.273438 206.699219 45.269531 206.699219 45.269531 206.699219 C 45.269531 206.699219 45.269531 206.699219 45.269531 206.703125 C 45.203125 206.730469 45.136719 206.765625 45.074219 206.804688 C 44.875 206.925781 44.667969 207.039062 44.460938 207.140625 C 44.050781 207.292969 43.628906 207.40625 43.199219 207.488281 C 42.871094 207.511719 42.539062 207.515625 42.207031 207.5 L 42.199219 207.5 C 41.972656 207.449219 41.746094 207.386719 41.523438 207.3125 C 41.414062 207.257812 41.304688 207.191406 41.199219 207.125 C 41.15625 207.089844 41.121094 207.050781 41.097656 207.027344 C 41.050781 206.988281 41.007812 206.941406 40.972656 206.894531 C 40.972656 206.890625 40.972656 206.890625 40.96875 206.890625 C 40.96875 206.890625 40.96875 206.886719 40.96875 206.886719 C 40.914062 206.796875 40.859375 206.703125 40.808594 206.609375 C 40.804688 206.605469 40.804688 206.601562 40.804688 206.597656 C 40.765625 206.484375 40.734375 206.363281 40.707031 206.242188 C 40.695312 206.027344 40.699219 205.816406 40.710938 205.601562 C 40.773438 205.304688 40.859375 205.011719 40.960938 204.726562 C 41.054688 204.523438 41.164062 204.328125 41.28125 204.140625 C 41.292969 204.121094 41.339844 204.046875 41.390625 203.960938 C 41.394531 203.957031 41.394531 203.957031 41.394531 203.953125 C 41.464844 203.875 41.535156 203.789062 41.609375 203.714844 C 41.734375 203.578125 41.871094 203.453125 42.003906 203.328125 C 42.265625 203.15625 42.539062 203 42.816406 202.859375 C 43.261719 202.699219 43.71875 202.578125 44.179688 202.492188 C 44.863281 202.4375 45.550781 202.441406 46.230469 202.507812 C 46.878906 202.621094 47.515625 202.777344 48.140625 202.980469 C 47.761719 203.714844 47.332031 204.421875 46.851562 205.09375 C 46.832031 205.121094 46.8125 205.152344 46.792969 205.175781 Z M 41.621094 203.640625 C 41.582031 203.707031 41.535156 203.769531 41.476562 203.824219 C 41.515625 203.753906 41.5625 203.691406 41.621094 203.640625 Z M 41.621094 203.640625 "/>
<path style=" stroke:none;fill-rule:nonzero;fill:rgb(24.705882%,23.921569%,33.72549%);fill-opacity:1;" d="M 108.339844 148.003906 C 108.296875 149.46875 108.253906 150.929688 108.214844 152.394531 C 108.125 155.640625 108.035156 158.890625 107.9375 162.140625 C 107.839844 165.796875 107.738281 169.449219 107.632812 173.105469 C 107.582031 174.992188 107.527344 176.878906 107.472656 178.765625 C 107.328125 183.847656 107.1875 188.929688 107.046875 194.007812 C 107.03125 194.535156 107.011719 195.054688 107 195.582031 C 106.929688 198.101562 106.859375 200.621094 106.789062 203.144531 C 106.710938 205.878906 106.632812 208.613281 106.558594 211.347656 C 106.5 213.394531 106.445312 215.449219 106.386719 217.5 C 105.96875 232.375 105.546875 247.25 105.128906 262.125 C 105.09375 264.039062 103.550781 265.582031 101.640625 265.617188 C 99.722656 265.601562 98.167969 264.046875 98.152344 262.125 C 98.386719 253.757812 98.621094 245.390625 98.859375 237.023438 C 99.070312 229.457031 99.28125 221.894531 99.496094 214.328125 C 99.566406 211.835938 99.636719 209.34375 99.707031 206.847656 C 99.8125 203.089844 99.917969 199.335938 100.023438 195.582031 C 100.035156 195.054688 100.054688 194.535156 100.070312 194.007812 C 100.078125 193.546875 100.09375 193.089844 100.105469 192.628906 C 100.3125 185.339844 100.515625 178.046875 100.71875 170.753906 C 100.804688 167.882812 100.882812 165.011719 100.960938 162.140625 C 101.054688 158.863281 101.148438 155.589844 101.242188 152.320312 C 101.28125 150.878906 101.320312 149.445312 101.363281 148.003906 C 101.398438 146.089844 102.9375 144.546875 104.851562 144.511719 C 106.769531 144.527344 108.324219 146.082031 108.339844 148.003906 Z M 108.339844 148.003906 "/>
<path style=" stroke:none;fill-rule:nonzero;fill:rgb(24.705882%,23.921569%,33.72549%);fill-opacity:1;" d="M 299.699219 148.972656 C 296.042969 162.847656 291.671875 176.519531 286.601562 189.941406 C 285.203125 193.644531 283.773438 197.339844 282.242188 200.988281 L 282.59375 200.152344 C 281.914062 201.890625 281.039062 203.550781 279.996094 205.097656 C 279.925781 205.195312 279.851562 205.296875 279.777344 205.394531 C 280.140625 204.929688 280.207031 204.839844 279.984375 205.117188 C 279.867188 205.257812 279.75 205.398438 279.628906 205.535156 C 279.300781 205.902344 278.953125 206.242188 278.582031 206.5625 C 278.488281 206.644531 278.394531 206.722656 278.296875 206.796875 L 278.734375 206.457031 C 278.683594 206.578125 278.328125 206.734375 278.214844 206.804688 C 277.859375 207.019531 277.484375 207.210938 277.097656 207.371094 L 277.929688 207.019531 C 277.296875 207.273438 276.636719 207.457031 275.964844 207.558594 L 276.890625 207.433594 C 276.226562 207.527344 275.554688 207.535156 274.890625 207.457031 L 275.820312 207.582031 C 275.273438 207.507812 274.742188 207.363281 274.234375 207.15625 L 275.070312 207.507812 C 274.796875 207.386719 274.535156 207.25 274.289062 207.089844 C 274.160156 207.007812 273.773438 206.710938 274.28125 207.101562 C 274.808594 207.503906 274.347656 207.136719 274.238281 207.027344 C 274.148438 206.9375 274.066406 206.839844 273.980469 206.75 C 273.570312 206.328125 274.441406 207.476562 274.164062 206.984375 C 274.015625 206.734375 273.878906 206.480469 273.753906 206.21875 L 274.109375 207.054688 C 273.949219 206.65625 273.832031 206.242188 273.769531 205.820312 L 273.894531 206.75 C 273.828125 206.222656 273.828125 205.6875 273.890625 205.164062 L 273.765625 206.089844 C 273.851562 205.503906 274.007812 204.929688 274.230469 204.378906 L 273.878906 205.210938 C 274.035156 204.839844 274.214844 204.484375 274.425781 204.140625 C 274.523438 203.964844 274.636719 203.796875 274.765625 203.640625 C 274.789062 203.648438 274.175781 204.347656 274.5 203.996094 C 274.585938 203.902344 274.664062 203.804688 274.75 203.714844 C 274.890625 203.566406 275.035156 203.433594 275.179688 203.296875 C 275.667969 202.832031 274.5 203.746094 275.0625 203.378906 C 275.46875 203.113281 275.894531 202.878906 276.339844 202.679688 L 275.507812 203.03125 C 276.253906 202.726562 277.035156 202.515625 277.832031 202.410156 L 276.902344 202.535156 C 277.902344 202.417969 278.914062 202.429688 279.910156 202.570312 L 278.980469 202.445312 C 280.242188 202.636719 281.476562 202.984375 282.652344 203.480469 L 281.820312 203.125 C 284.324219 204.203125 286.546875 205.804688 288.761719 207.375 C 290.902344 208.925781 293.15625 210.3125 295.507812 211.523438 C 300.566406 214.042969 306.007812 215.691406 311.613281 216.402344 C 327.941406 218.40625 344.164062 211.957031 354.675781 199.28125 C 355.304688 198.609375 355.671875 197.730469 355.695312 196.8125 C 355.691406 195.886719 355.324219 195 354.675781 194.339844 C 353.394531 193.164062 350.976562 192.832031 349.742188 194.339844 C 348.570312 195.773438 347.3125 197.128906 345.972656 198.40625 C 345.347656 199 344.703125 199.578125 344.042969 200.132812 C 343.667969 200.453125 343.285156 200.765625 342.898438 201.070312 C 342.71875 201.214844 342.148438 201.601562 343.023438 200.980469 C 342.820312 201.121094 342.628906 201.277344 342.433594 201.421875 C 339.503906 203.585938 336.328125 205.394531 332.976562 206.8125 L 333.808594 206.457031 C 330.210938 207.96875 326.429688 209.007812 322.566406 209.542969 L 323.492188 209.417969 C 319.515625 209.941406 315.488281 209.9375 311.515625 209.402344 L 312.441406 209.527344 C 308.46875 208.980469 304.582031 207.917969 300.878906 206.371094 L 301.714844 206.722656 C 298.140625 205.140625 294.753906 203.175781 291.605469 200.859375 C 289.964844 199.644531 288.238281 198.554688 286.433594 197.601562 C 284.335938 196.527344 282.0625 195.835938 279.71875 195.554688 C 275.328125 195.039062 270.855469 196.75 268.441406 200.550781 C 266.222656 204.046875 266.25 209.050781 269.359375 212.023438 C 272.5625 215.082031 277.414062 215.058594 281.191406 213.144531 C 284.828125 211.296875 287.011719 207.464844 288.546875 203.851562 C 292.003906 195.722656 295.0625 187.402344 297.914062 179.039062 C 300.734375 170.769531 303.292969 162.410156 305.589844 153.972656 C 305.871094 152.925781 306.152344 151.878906 306.429688 150.832031 C 306.894531 149.066406 305.84375 146.957031 303.992188 146.535156 C 302.140625 146.054688 300.242188 147.136719 299.699219 148.972656 Z M 299.699219 148.972656 "/>
<path style=" stroke:none;fill-rule:nonzero;fill:rgb(24.705882%,23.921569%,33.72549%);fill-opacity:1;" d="M 334.507812 148.003906 L 333.25 192.628906 L 332.003906 237.023438 L 331.296875 262.125 C 331.3125 264.046875 332.863281 265.601562 334.785156 265.617188 C 336.695312 265.582031 338.234375 264.039062 338.273438 262.125 L 339.527344 217.5 L 340.777344 173.105469 L 341.484375 148.003906 C 341.46875 146.082031 339.914062 144.527344 337.996094 144.511719 C 336.085938 144.546875 334.542969 146.089844 334.507812 148.003906 Z M 334.507812 148.003906 "/>
<use xlink:href="#surface5" mask="url(#mask0)"/>
<path style=" stroke:none;fill-rule:nonzero;fill:rgb(24.705882%,23.921569%,33.72549%);fill-opacity:1;" d="M 207.148438 234.851562 C 205.785156 240.945312 202.519531 246.445312 197.824219 250.550781 C 197.476562 250.851562 197.132812 251.140625 196.777344 251.421875 C 195.90625 251.503906 195.042969 251.582031 194.183594 251.664062 C 193.472656 251.730469 192.773438 251.800781 192.074219 251.867188 L 191.949219 251.878906 L 191.859375 251.117188 L 191.507812 248.023438 C 188.730469 243.480469 188.164062 237.921875 189.972656 232.910156 C 191.199219 229.59375 193.421875 226.664062 195.609375 223.757812 C 198.628906 219.742188 201.5625 215.773438 201.667969 210.875 C 203.15625 212.78125 204.390625 214.867188 205.34375 217.085938 C 204.441406 217.511719 203.632812 218.105469 202.960938 218.84375 C 202.773438 219.050781 202.582031 219.34375 202.710938 219.597656 C 202.824219 219.8125 203.101562 219.863281 203.34375 219.890625 C 203.925781 219.949219 204.511719 220.011719 205.09375 220.070312 C 205.558594 220.125 206.023438 220.167969 206.488281 220.222656 C 207.050781 222.070312 207.433594 223.972656 207.628906 225.894531 C 207.941406 228.886719 207.777344 231.910156 207.148438 234.851562 Z M 207.148438 234.851562 "/>
<path style=" stroke:none;fill-rule:nonzero;fill:rgb(39.215686%,36.078431%,100%);fill-opacity:1;" d="M 222.589844 222.644531 C 219.847656 224.640625 218.242188 227.515625 216.996094 230.683594 C 215.71875 231.09375 214.566406 231.828125 213.660156 232.816406 C 213.46875 233.027344 213.277344 233.320312 213.410156 233.570312 C 213.519531 233.785156 213.800781 233.835938 214.042969 233.867188 C 214.621094 233.925781 215.207031 233.988281 215.789062 234.046875 C 214.542969 237.792969 213.398438 241.667969 211.195312 244.832031 C 209.730469 246.921875 207.816406 248.65625 205.597656 249.914062 C 204.996094 250.257812 204.371094 250.570312 203.730469 250.839844 C 201.367188 251.023438 199.050781 251.21875 196.777344 251.421875 C 195.90625 251.503906 195.042969 251.582031 194.183594 251.664062 C 193.472656 251.730469 192.773438 251.800781 192.074219 251.867188 C 192.070312 251.609375 192.070312 251.355469 192.074219 251.097656 C 192.222656 244.273438 194.726562 237.710938 199.167969 232.527344 C 199.375 232.285156 199.589844 232.050781 199.808594 231.8125 C 202.058594 229.40625 204.703125 227.40625 207.628906 225.894531 C 212.238281 223.496094 217.402344 222.371094 222.589844 222.644531 Z M 222.589844 222.644531 "/>
<path style=" stroke:none;fill-rule:nonzero;fill:rgb(39.215686%,36.078431%,100%);fill-opacity:1;" d="M 194.988281 249.277344 L 194.457031 250.859375 L 194.183594 251.664062 C 193.472656 251.730469 192.773438 251.800781 192.074219 251.867188 L 191.949219 251.878906 C 191.175781 251.960938 190.410156 252.039062 189.640625 252.117188 C 189.441406 251.882812 189.242188 251.648438 189.046875 251.40625 C 178.9375 239.148438 180.617188 221.015625 192.800781 210.824219 C 192.183594 214.042969 192.902344 217.128906 194.078125 220.1875 C 193.953125 220.238281 193.832031 220.289062 193.714844 220.347656 C 192.816406 220.769531 192.007812 221.367188 191.335938 222.101562 C 191.144531 222.3125 190.953125 222.605469 191.082031 222.859375 C 191.195312 223.070312 191.472656 223.125 191.714844 223.152344 C 192.296875 223.210938 192.882812 223.273438 193.464844 223.332031 C 193.929688 223.382812 194.394531 223.429688 194.859375 223.480469 C 195.078125 223.503906 195.296875 223.527344 195.515625 223.550781 C 195.546875 223.621094 195.574219 223.6875 195.609375 223.757812 C 196.933594 226.636719 198.363281 229.527344 199.167969 232.527344 C 199.367188 233.28125 199.527344 234.046875 199.640625 234.816406 C 200.367188 240.09375 198.65625 245.414062 194.988281 249.277344 Z M 194.988281 249.277344 "/>
<path style=" stroke:none;fill-rule:nonzero;fill:rgb(24.705882%,23.921569%,33.72549%);fill-opacity:1;" d="M 241.808594 181.710938 C 237.804688 173.886719 231.601562 167.304688 224.304688 162.46875 C 216.984375 157.636719 208.585938 154.695312 199.855469 153.90625 C 198.710938 153.800781 197.566406 153.742188 196.414062 153.722656 C 195.054688 153.703125 174.617188 159.609375 167.769531 164.429688 C 160.925781 169.191406 155.296875 175.5 151.335938 182.84375 C 147.382812 190.226562 145.4375 198.523438 145.695312 206.894531 C 146.035156 215.320312 148.378906 223.542969 152.535156 230.875 C 156.632812 238.1875 162.453125 244.382812 169.484375 248.925781 C 176.621094 253.484375 183.785156 265.574219 192.207031 266 C 200.695312 266.429688 210.375 255.027344 218.113281 251.566406 C 225.851562 248.074219 232.542969 242.613281 237.519531 235.722656 C 242.355469 228.972656 245.484375 221.148438 246.636719 212.921875 C 247.832031 204.496094 247.277344 195.808594 244.402344 187.757812 C 243.667969 185.6875 242.800781 183.667969 241.808594 181.710938 C 240.980469 180.078125 238.554688 179.476562 237.035156 180.457031 C 235.410156 181.457031 234.859375 183.5625 235.785156 185.238281 C 236.269531 186.195312 236.722656 187.171875 237.140625 188.160156 L 236.789062 187.324219 C 238.371094 191.132812 239.445312 195.132812 239.984375 199.222656 L 239.863281 198.292969 C 240.4375 202.730469 240.425781 207.222656 239.832031 211.65625 L 239.957031 210.726562 C 239.351562 215.160156 238.171875 219.496094 236.441406 223.621094 L 236.792969 222.785156 C 235.902344 224.890625 234.867188 226.929688 233.691406 228.886719 C 233.09375 229.875 232.460938 230.84375 231.792969 231.785156 C 231.5 232.199219 231.195312 232.605469 230.890625 233.011719 C 230.492188 233.539062 231.433594 232.320312 231.023438 232.839844 C 230.953125 232.925781 230.882812 233.015625 230.8125 233.105469 C 230.601562 233.367188 230.386719 233.628906 230.167969 233.890625 C 228.71875 235.621094 227.136719 237.238281 225.4375 238.726562 C 225.011719 239.097656 224.582031 239.460938 224.144531 239.8125 C 223.925781 239.988281 223.710938 240.171875 223.484375 240.335938 C 223.492188 240.332031 224.21875 239.777344 223.789062 240.097656 C 223.652344 240.199219 223.519531 240.300781 223.382812 240.402344 C 222.480469 241.070312 221.554688 241.707031 220.605469 242.308594 C 218.417969 243.6875 216.121094 244.890625 213.742188 245.902344 L 214.574219 245.550781 C 210.46875 247.28125 206.152344 248.464844 201.738281 249.066406 L 202.667969 248.941406 C 198.253906 249.539062 193.785156 249.546875 189.371094 248.964844 L 190.296875 249.089844 C 186.285156 248.550781 182.359375 247.488281 178.625 245.929688 L 179.457031 246.28125 C 177.292969 245.367188 175.207031 244.277344 173.21875 243.027344 C 172.234375 242.40625 171.273438 241.746094 170.339844 241.046875 C 170.207031 240.949219 170.078125 240.847656 169.945312 240.746094 C 169.519531 240.425781 170.25 240.984375 170.253906 240.988281 C 170.007812 240.808594 169.769531 240.621094 169.542969 240.417969 C 169.089844 240.050781 168.648438 239.671875 168.210938 239.289062 C 166.464844 237.75 164.832031 236.082031 163.332031 234.300781 C 162.953125 233.855469 162.585938 233.402344 162.226562 232.945312 C 162.070312 232.746094 161.785156 232.34375 162.414062 233.191406 C 162.332031 233.078125 162.246094 232.96875 162.164062 232.859375 C 161.960938 232.59375 161.765625 232.324219 161.570312 232.054688 C 160.886719 231.105469 160.238281 230.136719 159.621094 229.144531 C 158.230469 226.894531 157.015625 224.542969 155.992188 222.105469 L 156.34375 222.941406 C 154.664062 218.941406 153.515625 214.738281 152.929688 210.4375 L 153.050781 211.367188 C 152.523438 207.40625 152.515625 203.390625 153.03125 199.425781 L 152.90625 200.355469 C 153.433594 196.515625 154.464844 192.761719 155.972656 189.191406 L 155.621094 190.027344 C 156.570312 187.792969 157.6875 185.632812 158.96875 183.574219 C 159.609375 182.539062 160.285156 181.535156 161.003906 180.550781 C 161.167969 180.328125 161.332031 180.105469 161.496094 179.886719 C 161.648438 179.6875 162.0625 179.191406 161.355469 180.066406 C 161.425781 179.980469 161.492188 179.894531 161.558594 179.804688 C 161.953125 179.308594 162.355469 178.816406 162.769531 178.332031 C 164.332031 176.5 166.023438 174.785156 167.832031 173.199219 C 168.289062 172.796875 168.753906 172.402344 169.222656 172.019531 C 169.4375 171.84375 169.652344 171.671875 169.871094 171.5 C 169.957031 171.433594 170.046875 171.367188 170.132812 171.296875 C 169.203125 172.039062 169.875 171.5 170.085938 171.339844 C 171.058594 170.609375 172.054688 169.917969 173.078125 169.261719 C 175.355469 167.804688 177.746094 166.539062 180.234375 165.484375 L 179.402344 165.835938 C 183.011719 164.320312 199.003906 160.734375 201.910156 161.128906 L 200.984375 161.003906 C 205.257812 161.601562 209.4375 162.757812 213.410156 164.441406 L 212.578125 164.089844 C 214.59375 164.945312 216.550781 165.929688 218.4375 167.039062 C 219.382812 167.59375 220.308594 168.175781 221.214844 168.789062 C 221.644531 169.082031 222.066406 169.378906 222.488281 169.683594 C 222.699219 169.835938 222.90625 169.988281 223.113281 170.144531 C 223.230469 170.230469 223.34375 170.316406 223.457031 170.402344 C 223.941406 170.765625 222.792969 169.878906 223.300781 170.277344 C 224.996094 171.613281 226.605469 173.054688 228.121094 174.589844 C 228.867188 175.347656 229.585938 176.132812 230.277344 176.941406 C 230.632812 177.355469 230.980469 177.773438 231.324219 178.203125 C 231.492188 178.414062 232.070312 179.179688 231.363281 178.242188 C 231.535156 178.46875 231.710938 178.699219 231.878906 178.929688 C 233.351562 180.921875 234.65625 183.03125 235.785156 185.238281 C 236.617188 186.867188 239.035156 187.472656 240.554688 186.488281 C 242.183594 185.488281 242.734375 183.382812 241.808594 181.710938 Z M 241.808594 181.710938 "/>
<path style=" stroke:none;fill-rule:nonzero;fill:rgb(24.705882%,23.921569%,33.72549%);fill-opacity:1;" d="M 201.160156 238.726562 C 200.421875 238.761719 199.742188 238.328125 199.457031 237.648438 C 199.171875 236.964844 199.34375 236.175781 199.886719 235.675781 C 199.929688 235.5 199.964844 235.371094 200.007812 235.195312 C 199.992188 235.15625 199.976562 235.117188 199.960938 235.082031 C 198.339844 231.214844 188.011719 241.992188 187.566406 245.625 C 187.371094 247.230469 187.453125 248.855469 187.8125 250.433594 C 184.464844 243.125 182.730469 235.179688 182.71875 227.140625 C 182.71875 225.121094 182.828125 223.105469 183.054688 221.101562 C 183.238281 219.457031 183.496094 217.824219 183.824219 216.207031 C 185.617188 207.414062 189.46875 199.171875 195.058594 192.160156 C 198.253906 192.339844 201.054688 191.851562 201.328125 185.644531 C 201.375 184.539062 202.191406 183.585938 202.371094 182.496094 C 202.066406 182.539062 201.757812 182.5625 201.453125 182.582031 C 201.355469 182.585938 201.257812 182.59375 201.160156 182.597656 L 201.125 182.597656 C 200.441406 182.628906 199.800781 182.253906 199.492188 181.640625 C 199.183594 181.027344 199.261719 180.289062 199.695312 179.757812 C 199.828125 179.59375 199.960938 179.433594 200.089844 179.269531 C 200.292969 179.019531 200.496094 178.773438 200.695312 178.523438 C 200.71875 178.5 200.742188 178.472656 200.761719 178.449219 C 200.992188 178.164062 201.222656 177.882812 201.453125 177.597656 C 201.03125 176.941406 200.464844 176.394531 199.800781 175.996094 C 197.492188 174.644531 194.3125 175.582031 192.644531 177.671875 C 190.972656 179.761719 190.660156 182.691406 191.238281 185.304688 C 191.808594 187.527344 192.753906 189.632812 194.03125 191.539062 C 193.90625 191.699219 193.777344 191.855469 193.652344 192.015625 C 191.363281 194.960938 189.371094 198.121094 187.699219 201.457031 C 188.171875 197.757812 182.394531 184.402344 180.15625 181.574219 C 177.472656 178.175781 171.964844 179.660156 171.492188 183.964844 C 171.488281 184.007812 171.484375 184.050781 171.480469 184.089844 C 171.8125 184.277344 172.136719 184.476562 172.453125 184.6875 C 173.273438 185.234375 173.671875 186.230469 173.457031 187.191406 C 173.246094 188.152344 172.464844 188.886719 171.492188 189.035156 L 171.445312 189.042969 C 167 195.398438 181.25 211.941406 184.816406 208.226562 C 183.136719 212.992188 182.082031 217.953125 181.683594 222.992188 C 181.457031 225.960938 181.46875 228.949219 181.722656 231.917969 L 181.707031 231.8125 C 180.914062 225.34375 167.320312 215.730469 163.351562 216.53125 C 161.0625 216.992188 158.8125 216.886719 159.160156 219.195312 C 159.164062 219.234375 159.171875 219.269531 159.175781 219.308594 C 159.792969 219.558594 160.390625 219.847656 160.972656 220.175781 C 161.304688 220.363281 161.628906 220.5625 161.945312 220.773438 C 162.765625 221.320312 163.164062 222.3125 162.949219 223.273438 C 162.738281 224.234375 161.957031 224.96875 160.984375 225.117188 L 160.9375 225.125 C 160.902344 225.132812 160.871094 225.136719 160.835938 225.140625 C 158.8125 232.113281 173.816406 243.363281 182.9375 239.785156 L 182.941406 239.785156 C 183.847656 243.71875 185.15625 247.546875 186.851562 251.210938 L 200.8125 251.210938 C 200.863281 251.054688 200.90625 250.894531 200.953125 250.738281 C 199.660156 250.820312 198.363281 250.742188 197.089844 250.507812 C 198.125 249.238281 199.160156 247.953125 200.195312 246.679688 C 200.21875 246.65625 200.242188 246.632812 200.261719 246.605469 C 200.785156 245.953125 201.316406 245.308594 201.84375 244.65625 C 201.871094 242.660156 201.640625 240.664062 201.160156 238.726562 Z M 185.175781 207.230469 L 185.183594 207.21875 L 185.175781 207.238281 Z M 182.082031 235.148438 L 181.960938 234.878906 C 181.96875 234.683594 181.96875 234.488281 181.960938 234.289062 C 181.960938 234.230469 181.953125 234.175781 181.953125 234.121094 C 181.996094 234.46875 182.039062 234.8125 182.085938 235.160156 Z M 182.082031 235.148438 "/>
<path style=" stroke:none;fill-rule:nonzero;fill:rgb(24.705882%,23.921569%,33.72549%);fill-opacity:1;" d="M 49.417969 204.507812 C 49.417969 207.339844 47.128906 209.632812 44.300781 209.632812 C 41.476562 209.632812 39.183594 207.339844 39.183594 204.507812 C 39.183594 201.679688 41.476562 199.382812 44.300781 199.382812 C 47.128906 199.382812 49.417969 201.679688 49.417969 204.507812 Z M 49.417969 204.507812 "/>
<path style=" stroke:none;fill-rule:nonzero;fill:rgb(24.705882%,23.921569%,33.72549%);fill-opacity:1;" d="M 110.8125 260.410156 C 110.8125 263.238281 108.523438 265.535156 105.695312 265.535156 C 102.871094 265.535156 100.582031 263.238281 100.582031 260.410156 C 100.582031 257.578125 102.871094 255.285156 105.695312 255.285156 C 108.523438 255.285156 110.8125 257.578125 110.8125 260.410156 Z M 110.8125 260.410156 "/>
<path style=" stroke:none;fill-rule:nonzero;fill:rgb(24.705882%,23.921569%,33.72549%);fill-opacity:1;" d="M 343.835938 260.410156 C 343.835938 263.238281 341.546875 265.535156 338.71875 265.535156 C 335.894531 265.535156 333.605469 263.238281 333.605469 260.410156 C 333.605469 257.578125 335.894531 255.285156 338.71875 255.285156 C 341.546875 255.285156 343.835938 257.578125 343.835938 260.410156 Z M 343.835938 260.410156 "/>
<path style=" stroke:none;fill-rule:nonzero;fill:rgb(24.705882%,23.921569%,33.72549%);fill-opacity:1;" d="M 356.394531 195.191406 C 356.394531 198.019531 354.105469 200.316406 351.277344 200.316406 C 348.453125 200.316406 346.164062 198.019531 346.164062 195.191406 C 346.164062 192.359375 348.453125 190.066406 351.277344 190.066406 C 354.105469 190.066406 356.394531 192.359375 356.394531 195.191406 Z M 356.394531 195.191406 "/>
<path style=" stroke:none;fill-rule:nonzero;fill:rgb(24.705882%,23.921569%,33.72549%);fill-opacity:1;" d="M 341.511719 147.675781 C 341.511719 150.503906 339.21875 152.796875 336.394531 152.796875 C 333.570312 152.796875 331.277344 150.503906 331.277344 147.675781 C 331.277344 144.84375 333.570312 142.550781 336.394531 142.550781 C 339.21875 142.550781 341.511719 144.84375 341.511719 147.675781 Z M 341.511719 147.675781 "/>
<path style=" stroke:none;fill-rule:nonzero;fill:rgb(24.705882%,23.921569%,33.72549%);fill-opacity:1;" d="M 122.90625 195.191406 C 122.898438 197.910156 120.765625 200.144531 118.054688 200.273438 C 115.34375 200.402344 113.007812 198.378906 112.746094 195.671875 C 112.484375 192.964844 114.386719 190.53125 117.070312 190.132812 C 119.753906 189.734375 122.28125 191.519531 122.808594 194.183594 C 122.875 194.515625 122.90625 194.851562 122.90625 195.191406 Z M 122.90625 195.191406 "/>
<path style=" stroke:none;fill-rule:nonzero;fill:rgb(24.705882%,23.921569%,33.72549%);fill-opacity:1;" d="M 230.347656 162.582031 C 230.347656 165.410156 228.058594 167.707031 225.230469 167.707031 C 222.40625 167.707031 220.117188 165.410156 220.117188 162.582031 C 220.117188 159.75 222.40625 157.457031 225.230469 157.457031 C 228.058594 157.457031 230.347656 159.75 230.347656 162.582031 Z M 230.347656 162.582031 "/>
<path style=" stroke:none;fill-rule:nonzero;fill:rgb(24.705882%,23.921569%,33.72549%);fill-opacity:1;" d="M 174.535156 162.582031 C 174.527344 165.300781 172.394531 167.535156 169.683594 167.664062 C 166.972656 167.792969 164.636719 165.769531 164.375 163.0625 C 164.109375 160.355469 166.011719 157.921875 168.699219 157.523438 C 171.382812 157.125 173.90625 158.910156 174.4375 161.574219 C 174.503906 161.90625 174.535156 162.242188 174.535156 162.582031 Z M 174.535156 162.582031 "/>
<path style=" stroke:none;fill-rule:nonzero;fill:rgb(24.705882%,23.921569%,33.72549%);fill-opacity:1;" d="M 108.488281 147.675781 C 108.480469 150.394531 106.347656 152.628906 103.636719 152.757812 C 100.925781 152.886719 98.589844 150.863281 98.328125 148.15625 C 98.0625 145.449219 99.964844 143.011719 102.652344 142.617188 C 105.335938 142.21875 107.859375 144 108.390625 146.667969 C 108.457031 147 108.488281 147.335938 108.488281 147.675781 Z M 108.488281 147.675781 "/>
<path style=" stroke:none;fill-rule:nonzero;fill:rgb(24.705882%,23.921569%,33.72549%);fill-opacity:1;" d="M 283.835938 206.371094 C 283.835938 209.203125 281.546875 211.496094 278.71875 211.496094 C 275.894531 211.496094 273.605469 209.203125 273.605469 206.371094 C 273.605469 203.542969 275.894531 201.246094 278.71875 201.246094 C 281.546875 201.246094 283.835938 203.542969 283.835938 206.371094 Z M 283.835938 206.371094 "/>
<path style=" stroke:none;fill-rule:nonzero;fill:rgb(24.705882%,23.921569%,33.72549%);fill-opacity:1;" d="M 205.695312 157.457031 C 205.695312 161.574219 202.367188 164.910156 198.253906 164.910156 C 194.144531 164.910156 190.8125 161.574219 190.8125 157.457031 C 190.8125 153.339844 194.144531 150.003906 198.253906 150.003906 C 202.367188 150.003906 205.695312 153.339844 205.695312 157.457031 Z M 205.695312 157.457031 "/>
<path style=" stroke:none;fill-rule:nonzero;fill:rgb(79.215686%,79.215686%,79.215686%);fill-opacity:1;" d="M 399.507812 265.925781 L 0.554688 266.070312 C 0.246094 266.070312 0 265.820312 0 265.515625 C 0 265.207031 0.246094 264.960938 0.554688 264.960938 L 399.507812 264.816406 C 399.8125 264.816406 400.058594 265.066406 400.058594 265.371094 C 400.058594 265.675781 399.8125 265.925781 399.507812 265.925781 Z M 399.507812 265.925781 "/>
</g>
</svg>
